<svg width="105" height="54" viewBox="0 0 105 54" fill="none" xmlns="http://www.w3.org/2000/svg">
<path d="M27.1016 8.67969C27.6484 8.67969 28.1406 8.77344 28.5781 8.96094C29.0312 9.13281 29.4453 9.32812 29.8203 9.54688C30.2109 9.76562 30.5781 9.96875 30.9219 10.1562C31.2656 10.3281 31.6172 10.4141 31.9766 10.4141C32.2578 10.3984 32.5781 10.3594 32.9375 10.2969C33.25 10.2344 33.6094 10.1406 34.0156 10.0156C34.4375 9.875 34.9062 9.67188 35.4219 9.40625C34.9062 9.90625 34.4844 10.3281 34.1562 10.6719C33.8438 11 33.6016 11.2734 33.4297 11.4922C33.2266 11.7422 33.0781 11.9375 32.9844 12.0781C32.8906 12.25 32.75 12.5078 32.5625 12.8516C32.3906 13.1641 32.1562 13.5859 31.8594 14.1172C31.5625 14.6328 31.1875 15.3125 30.7344 16.1562C30.7344 15.0781 30.625 14.2422 30.4062 13.6484C30.2031 13.0547 29.9766 12.6016 29.7266 12.2891C29.4297 11.9297 29.0938 11.7031 28.7188 11.6094C28.375 11.5625 28.0312 11.625 27.6875 11.7969C27.3438 11.9531 27 12.1875 26.6562 12.5C26.3281 12.8125 26.0078 13.1875 25.6953 13.625C25.3984 14.0469 25.125 14.4922 24.875 14.9609C24.6406 15.4297 24.4453 15.9062 24.2891 16.3906C24.1328 16.8594 24.0312 17.2969 23.9844 17.7031C23.9375 18.0625 23.9297 18.4844 23.9609 18.9688C23.9922 19.4375 24.0625 19.9219 24.1719 20.4219C24.2812 20.9062 24.4219 21.3828 24.5938 21.8516C24.7656 22.3203 24.9766 22.7422 25.2266 23.1172C25.4922 23.4766 25.7891 23.7734 26.1172 24.0078C26.4453 24.2266 26.8203 24.3281 27.2422 24.3125C27.7109 24.2812 28.1719 24.1406 28.625 23.8906C29.0156 23.6875 29.4141 23.375 29.8203 22.9531C30.2266 22.5156 30.5781 21.8984 30.875 21.1016L34.3438 21.7344C33.3438 22.9531 32.3672 23.8672 31.4141 24.4766C30.4766 25.0859 29.6328 25.5156 28.8828 25.7656C28.0078 26.0469 27.1797 26.1797 26.3984 26.1641C25.4141 26.0547 24.4922 25.7578 23.6328 25.2734C22.7734 24.7891 22.0312 24.2031 21.4062 23.5156C20.7969 22.8125 20.3203 22.0469 19.9766 21.2188C19.6328 20.3906 19.4844 19.5781 19.5312 18.7812C19.5625 18.25 19.6719 17.6328 19.8594 16.9297C20.0469 16.2109 20.2969 15.4766 20.6094 14.7266C20.9375 13.9766 21.3281 13.2422 21.7812 12.5234C22.2344 11.8047 22.7344 11.1641 23.2812 10.6016C23.8281 10.0234 24.4219 9.5625 25.0625 9.21875C25.7188 8.85938 26.3984 8.67969 27.1016 8.67969ZM40.3906 15.5C40.7969 15.5 41.2188 15.5781 41.6562 15.7344C42.0938 15.875 42.5156 16.0625 42.9219 16.2969C43.3281 16.5156 43.6953 16.7578 44.0234 17.0234C44.3672 17.2734 44.6484 17.5156 44.8672 17.75C45.2578 18.1719 45.5234 18.7422 45.6641 19.4609C45.8203 20.1641 45.8516 20.8906 45.7578 21.6406C45.6641 22.375 45.4453 23.0703 45.1016 23.7266C44.7578 24.3828 44.2812 24.8672 43.6719 25.1797C43.2344 25.3984 42.8047 25.5703 42.3828 25.6953C41.9609 25.8203 41.5547 25.9141 41.1641 25.9766C40.7734 26.0391 40.4062 26.0703 40.0625 26.0703C39.7188 26.0703 39.4219 26.0625 39.1719 26.0469C38.7031 26.0156 38.2109 25.8516 37.6953 25.5547C37.1953 25.2578 36.7188 24.8906 36.2656 24.4531C35.8281 24.0156 35.4531 23.5391 35.1406 23.0234C34.8281 22.4922 34.6406 21.9922 34.5781 21.5234C34.4844 20.8828 34.4688 20.2109 34.5312 19.5078C34.5938 18.8047 34.8203 18.1562 35.2109 17.5625C35.6172 16.9688 36.2266 16.4766 37.0391 16.0859C37.8672 15.6953 38.9844 15.5 40.3906 15.5ZM39.6172 24.5938C39.7891 24.625 40.0234 24.5859 40.3203 24.4766C40.6172 24.3516 40.9062 24.1562 41.1875 23.8906C41.4844 23.625 41.7422 23.2891 41.9609 22.8828C42.1953 22.4609 42.3359 21.9531 42.3828 21.3594C42.4297 20.7812 42.4297 20.25 42.3828 19.7656C42.3516 19.2812 42.2812 18.8594 42.1719 18.5C42.0625 18.125 41.9375 17.8203 41.7969 17.5859C41.6562 17.3516 41.5078 17.1875 41.3516 17.0938C41.0859 16.9531 40.7656 16.8438 40.3906 16.7656C40.0156 16.6719 39.6953 16.6875 39.4297 16.8125C39.3047 16.875 39.1484 17.0078 38.9609 17.2109C38.7734 17.4141 38.5859 17.6719 38.3984 17.9844C38.2109 18.2812 38.0391 18.625 37.8828 19.0156C37.7422 19.4062 37.6406 19.8125 37.5781 20.2344C37.5156 20.6562 37.5 21.1094 37.5312 21.5938C37.5781 22.0781 37.6797 22.5391 37.8359 22.9766C37.9922 23.3984 38.2109 23.7656 38.4922 24.0781C38.7891 24.375 39.1641 24.5469 39.6172 24.5938ZM47.4219 26.6562C47.5781 26.4219 47.7031 26.2031 47.7969 26C47.8906 25.7969 47.9688 25.625 48.0312 25.4844C48.0938 25.3125 48.1406 25.1562 48.1719 25.0156C48.1875 24.9219 48.1953 24.6484 48.1953 24.1953C48.1953 23.7422 48.1797 23.1719 48.1484 22.4844C48.1328 21.7969 48.1094 21.0234 48.0781 20.1641C48.0625 19.3047 48.0312 18.4297 47.9844 17.5391C47.9531 16.6484 47.9141 15.7812 47.8672 14.9375C47.8359 14.0938 47.8047 13.3359 47.7734 12.6641C47.7422 11.9766 47.7109 11.4141 47.6797 10.9766C47.6484 10.5391 47.625 10.2891 47.6094 10.2266C47.5781 10.1328 47.5234 10.0391 47.4453 9.94531C47.2891 9.75781 47.0234 9.57812 46.6484 9.40625C47.4453 9.20312 48.0547 9.03906 48.4766 8.91406C48.7266 8.85156 48.9453 8.78906 49.1328 8.72656C49.3047 8.66406 49.4766 8.60156 49.6484 8.53906C49.7891 8.47656 49.9453 8.40625 50.1172 8.32812C50.2891 8.23438 50.4453 8.13281 50.5859 8.02344C50.5078 8.47656 50.4453 8.91406 50.3984 9.33594C50.3516 9.75781 50.3125 10.1484 50.2812 10.5078C50.25 10.9141 50.2344 11.3047 50.2344 11.6797C50.1562 12.4453 50.1094 13.2812 50.0938 14.1875C50.0938 15.0781 50.1016 15.9844 50.1172 16.9062C50.1328 17.8281 50.1641 18.7266 50.2109 19.6016C50.2578 20.4766 50.3047 21.2734 50.3516 21.9922C50.4141 22.6953 50.4688 23.2969 50.5156 23.7969C50.5781 24.2812 50.625 24.5938 50.6562 24.7344C50.7188 24.9688 50.7812 25.1953 50.8438 25.4141C50.9062 25.6016 50.9766 25.7969 51.0547 26C51.1328 26.2188 51.2266 26.3906 51.3359 26.5156H49.0625C48.8594 26.5156 48.6641 26.5234 48.4766 26.5391C48.3047 26.5547 48.125 26.5703 47.9375 26.5859C47.75 26.6016 47.5781 26.625 47.4219 26.6562ZM52.7188 26.6562C52.875 26.4219 53 26.2031 53.0938 26C53.1875 25.7969 53.2656 25.625 53.3281 25.4844C53.3906 25.3125 53.4375 25.1562 53.4688 25.0156C53.4844 24.9219 53.4922 24.6484 53.4922 24.1953C53.4922 23.7422 53.4766 23.1719 53.4453 22.4844C53.4297 21.7969 53.4062 21.0234 53.375 20.1641C53.3594 19.3047 53.3281 18.4297 53.2812 17.5391C53.25 16.6484 53.2109 15.7812 53.1641 14.9375C53.1328 14.0938 53.1016 13.3359 53.0703 12.6641C53.0391 11.9766 53.0078 11.4141 52.9766 10.9766C52.9453 10.5391 52.9219 10.2891 52.9062 10.2266C52.875 10.1328 52.8203 10.0391 52.7422 9.94531C52.5859 9.75781 52.3203 9.57812 51.9453 9.40625C52.7422 9.20312 53.3516 9.03906 53.7734 8.91406C54.0234 8.85156 54.2422 8.78906 54.4297 8.72656C54.6016 8.66406 54.7734 8.60156 54.9453 8.53906C55.0859 8.47656 55.2422 8.40625 55.4141 8.32812C55.5859 8.23438 55.7422 8.13281 55.8828 8.02344C55.8047 8.47656 55.7422 8.91406 55.6953 9.33594C55.6484 9.75781 55.6094 10.1484 55.5781 10.5078C55.5469 10.9141 55.5312 11.3047 55.5312 11.6797C55.4531 12.4453 55.4062 13.2812 55.3906 14.1875C55.3906 15.0781 55.3984 15.9844 55.4141 16.9062C55.4297 17.8281 55.4609 18.7266 55.5078 19.6016C55.5547 20.4766 55.6016 21.2734 55.6484 21.9922C55.7109 22.6953 55.7656 23.2969 55.8125 23.7969C55.875 24.2812 55.9219 24.5938 55.9531 24.7344C56.0156 24.9688 56.0781 25.1953 56.1406 25.4141C56.2031 25.6016 56.2734 25.7969 56.3516 26C56.4297 26.2188 56.5234 26.3906 56.6328 26.5156H54.3594C54.1562 26.5156 53.9609 26.5234 53.7734 26.5391C53.6016 26.5547 53.4219 26.5703 53.2344 26.5859C53.0469 26.6016 52.875 26.625 52.7188 26.6562ZM59.2344 16.5078C59.3125 16.4141 59.3594 16.2422 59.375 15.9922C59.4062 15.7266 59.4688 15.4297 59.5625 15.1016C59.6719 14.7734 59.8516 14.4297 60.1016 14.0703C60.3516 13.7109 60.7578 13.375 61.3203 13.0625C61.8672 12.75 62.3984 12.5625 62.9141 12.5C63.4297 12.4375 63.9219 12.4609 64.3906 12.5703C64.8594 12.6797 65.2969 12.8516 65.7031 13.0859C66.125 13.3203 66.5078 13.5781 66.8516 13.8594C67.0859 14.0469 67.2734 14.3203 67.4141 14.6797C67.5547 15.0234 67.6641 15.4141 67.7422 15.8516C67.8203 16.2891 67.875 16.75 67.9062 17.2344C67.9531 17.7031 67.9844 18.1641 68 18.6172C68.0156 19.0547 68.0234 19.4609 68.0234 19.8359C68.0391 20.1953 68.0703 20.4922 68.1172 20.7266C68.1797 21.0703 68.2891 21.3672 68.4453 21.6172C68.6016 21.8516 68.7734 22.0547 68.9609 22.2266C69.1484 22.3828 69.3359 22.5078 69.5234 22.6016C69.7109 22.6953 69.875 22.7656 70.0156 22.8125C70.1094 22.8594 70.1953 22.8906 70.2734 22.9062C70.4297 22.9688 70.5391 22.9688 70.6016 22.9062C70.5078 23.125 70.4219 23.3125 70.3438 23.4688C70.2656 23.625 70.2031 23.7578 70.1562 23.8672C70.0938 23.9922 70.0391 24.0938 69.9922 24.1719C69.9453 24.2656 69.8906 24.3516 69.8281 24.4297C69.7812 24.5078 69.7188 24.5938 69.6406 24.6875C69.5625 24.7812 69.4844 24.8828 69.4062 24.9922C69.2031 24.9141 69.0078 24.8203 68.8203 24.7109C68.6484 24.6016 68.4922 24.5 68.3516 24.4062C68.1797 24.2969 68.0234 24.1875 67.8828 24.0781C67.7422 23.9688 67.6094 23.8438 67.4844 23.7031C67.375 23.5781 67.2578 23.4453 67.1328 23.3047C67.0234 23.1641 66.9297 23.0078 66.8516 22.8359C66.7578 23.0391 66.5312 23.3281 66.1719 23.7031C65.8281 24.0781 65.375 24.4219 64.8125 24.7344C64.25 25.0312 63.5938 25.2422 62.8438 25.3672C62.1094 25.4922 61.2969 25.4062 60.4062 25.1094C60.0156 24.9844 59.6484 24.8047 59.3047 24.5703C58.9609 24.3203 58.6641 24.0234 58.4141 23.6797C58.1797 23.3359 58.0078 22.9453 57.8984 22.5078C57.8047 22.0547 57.8125 21.5547 57.9219 21.0078C58.0312 20.4609 58.2266 20 58.5078 19.625C58.7891 19.25 59.125 18.9453 59.5156 18.7109C59.9062 18.4766 60.3438 18.2969 60.8281 18.1719C61.3125 18.0469 61.8125 17.9609 62.3281 17.9141C62.7344 17.8984 63.1406 17.9219 63.5469 17.9844C63.8906 18.0469 64.25 18.1641 64.625 18.3359C65 18.4922 65.3203 18.7344 65.5859 19.0625C65.5703 18.2344 65.5391 17.5781 65.4922 17.0938C65.4609 16.5938 65.4297 16.2109 65.3984 15.9453C65.3359 15.6328 65.2812 15.4141 65.2344 15.2891C65.1562 15.1797 65.0703 15.0547 64.9766 14.9141C64.8984 14.7734 64.7969 14.6484 64.6719 14.5391C64.5469 14.4141 64.3906 14.3125 64.2031 14.2344C64.0156 14.1562 63.7969 14.125 63.5469 14.1406C63.2812 14.1562 63.0703 14.2266 62.9141 14.3516C62.7578 14.4766 62.6328 14.625 62.5391 14.7969C62.4609 14.9531 62.4141 15.125 62.3984 15.3125C62.3828 15.5 62.3906 15.6641 62.4219 15.8047C62.4531 15.8984 62.5 16 62.5625 16.1094C62.625 16.2031 62.7109 16.3047 62.8203 16.4141C62.9297 16.5234 63.0781 16.6172 63.2656 16.6953C62.9062 16.7422 62.5859 16.7812 62.3047 16.8125C62.0234 16.8281 61.7812 16.8516 61.5781 16.8828C61.3438 16.9141 61.1406 16.9375 60.9688 16.9531C60.7969 16.9688 60.5938 17 60.3594 17.0469C60.1562 17.0781 59.9062 17.1172 59.6094 17.1641C59.3125 17.2109 58.9688 17.2734 58.5781 17.3516C58.6719 17.2422 58.7578 17.1406 58.8359 17.0469C58.9141 16.9375 58.9844 16.8438 59.0469 16.7656C59.1094 16.6719 59.1719 16.5859 59.2344 16.5078ZM62.75 19.2969C62.4688 19.3125 62.1875 19.3828 61.9062 19.5078C61.625 19.6172 61.375 19.7812 61.1562 20C60.9375 20.2031 60.75 20.4453 60.5938 20.7266C60.4531 20.9922 60.3828 21.2891 60.3828 21.6172C60.3828 21.9453 60.4609 22.2344 60.6172 22.4844C60.7891 22.7188 61.0078 22.9141 61.2734 23.0703C61.5547 23.2266 61.8516 23.3203 62.1641 23.3516C62.4922 23.3828 62.8125 23.3516 63.125 23.2578C63.4219 23.1484 63.7031 22.9766 63.9688 22.7422C64.2344 22.4922 64.4609 22.2266 64.6484 21.9453C64.8359 21.6484 64.9688 21.3594 65.0469 21.0781C65.125 20.7812 65.1328 20.5391 65.0703 20.3516C64.9453 19.9453 64.6641 19.6641 64.2266 19.5078C63.7891 19.3359 63.2969 19.2656 62.75 19.2969ZM70.3672 9.54688C70.7266 9.64062 71.0547 9.71094 71.3516 9.75781C71.6641 9.78906 71.9297 9.8125 72.1484 9.82812C72.4141 9.84375 72.6562 9.85156 72.875 9.85156C73.0938 9.85156 73.3672 9.83594 73.6953 9.80469C74.2734 9.75781 75.0938 9.64062 76.1562 9.45312C75.9844 9.57812 75.8203 9.70312 75.6641 9.82812C75.5234 9.9375 75.3984 10.0469 75.2891 10.1562L74.9375 10.5078C74.7344 10.7891 74.5312 11.2656 74.3281 11.9375C74.1562 12.5156 73.9688 13.3281 73.7656 14.375C73.5781 15.4219 73.4062 16.8125 73.25 18.5469C74.0156 17.7969 74.7344 17.2344 75.4062 16.8594C76.0938 16.4688 76.6953 16.1875 77.2109 16.0156C77.8203 15.8281 78.375 15.7266 78.875 15.7109C79.5156 15.7578 80.0703 15.8906 80.5391 16.1094C81.0234 16.3125 81.4297 16.5625 81.7578 16.8594C82.1016 17.1406 82.375 17.4375 82.5781 17.75C82.7969 18.0469 82.9609 18.3125 83.0703 18.5469C83.1328 18.7031 83.1797 18.9922 83.2109 19.4141C83.2578 19.8203 83.2656 20.2891 83.2344 20.8203C83.2031 21.3516 83.1172 21.9141 82.9766 22.5078C82.8516 23.0859 82.6406 23.625 82.3438 24.125C82.0625 24.6094 81.6875 25.0156 81.2188 25.3438C80.7656 25.6719 80.1953 25.8516 79.5078 25.8828C78.7109 25.8828 77.9375 25.7891 77.1875 25.6016C76.5469 25.4453 75.8672 25.1719 75.1484 24.7812C74.4453 24.375 73.8438 23.7969 73.3438 23.0469C73.3438 23.2344 73.3438 23.4219 73.3438 23.6094C73.3438 23.7812 73.3516 23.9297 73.3672 24.0547C73.3828 24.2266 73.3984 24.375 73.4141 24.5C73.4297 24.6406 73.4688 24.7891 73.5312 24.9453C73.5781 25.0703 73.6484 25.2266 73.7422 25.4141C73.8516 25.5859 73.9922 25.7578 74.1641 25.9297C73.9922 25.9141 73.8203 25.9062 73.6484 25.9062C73.4766 25.8906 73.3047 25.8906 73.1328 25.9062C72.9453 25.9219 72.7578 25.9375 72.5703 25.9531C72.3828 25.9688 72.1875 25.9922 71.9844 26.0234C71.8125 26.0547 71.6094 26.0938 71.375 26.1406C71.1406 26.1875 70.8984 26.2422 70.6484 26.3047C70.6953 26.1641 70.7344 25.9609 70.7656 25.6953C70.7969 25.4141 70.8281 25.1094 70.8594 24.7812C70.9062 24.4375 70.9375 24.0781 70.9531 23.7031C70.9844 23.3281 71.0156 22.9531 71.0469 22.5781C71.1094 21.7188 71.1641 20.7812 71.2109 19.7656C71.2578 18.1875 71.2656 16.7188 71.2344 15.3594C71.2188 14.7812 71.1875 14.1953 71.1406 13.6016C71.1094 13.0078 71.0625 12.4531 71 11.9375C70.9375 11.4062 70.8516 10.9375 70.7422 10.5312C70.6484 10.1094 70.5234 9.78125 70.3672 9.54688ZM73.4141 20.9609C73.6641 21.4141 73.9297 21.8047 74.2109 22.1328C74.4922 22.4453 74.7734 22.7109 75.0547 22.9297C75.3359 23.1484 75.6094 23.3203 75.875 23.4453C76.1562 23.5703 76.4219 23.6641 76.6719 23.7266C77.25 23.8828 77.8203 23.8984 78.3828 23.7734C78.9453 23.6172 79.3828 23.3047 79.6953 22.8359C80.0078 22.3672 80.25 21.8359 80.4219 21.2422C80.5 20.9609 80.5469 20.6016 80.5625 20.1641C80.5938 19.7266 80.5469 19.3047 80.4219 18.8984C80.3125 18.4766 80.1094 18.1094 79.8125 17.7969C79.5156 17.4688 79.0859 17.2734 78.5234 17.2109C78.1328 17.2109 77.6797 17.3203 77.1641 17.5391C76.7109 17.7266 76.1719 18.0391 75.5469 18.4766C74.9219 18.8984 74.2109 19.5312 73.4141 20.375V20.9609Z" fill="black"/>
<path d="M35.1875 27.8438C34.9688 28.3438 34.7734 28.7812 34.6016 29.1562C34.4297 29.5312 34.2812 29.8516 34.1562 30.1172C34.0156 30.4141 33.8984 30.6797 33.8047 30.9141C33.7266 31.0859 33.625 31.3203 33.5 31.6172C33.375 31.8828 33.2188 32.2344 33.0312 32.6719C32.8594 33.0938 32.6328 33.6406 32.3516 34.3125C32.2109 33.7344 32.0391 33.2266 31.8359 32.7891C31.6328 32.3516 31.4141 31.9688 31.1797 31.6406C30.9453 31.3125 30.6953 31.0469 30.4297 30.8438C30.1797 30.625 29.9297 30.4453 29.6797 30.3047C29.1016 29.9922 28.4922 29.8203 27.8516 29.7891C27.0078 29.8359 26.3438 29.9766 25.8594 30.2109C25.3906 30.4297 25.0469 30.6875 24.8281 30.9844C24.6094 31.2656 24.4922 31.5625 24.4766 31.875C24.4609 32.1719 24.5 32.4219 24.5938 32.625C24.6719 32.8125 24.9453 33.0312 25.4141 33.2812C25.8984 33.5312 26.4766 33.8203 27.1484 34.1484C27.8359 34.4609 28.5703 34.8203 29.3516 35.2266C30.1328 35.6172 30.8516 36.0547 31.5078 36.5391C32.1797 37.0078 32.7422 37.5234 33.1953 38.0859C33.6641 38.6328 33.9219 39.2188 33.9688 39.8438C34.0156 40.6406 34.0078 41.3594 33.9453 42C33.8828 42.6406 33.6641 43.1875 33.2891 43.6406C32.9141 44.0938 32.3281 44.4531 31.5312 44.7188C30.75 44.9844 29.6641 45.1484 28.2734 45.2109C26.8359 45.2734 25.6562 45.1953 24.7344 44.9766C23.8125 44.7578 23.0625 44.4609 22.4844 44.0859C21.9219 43.7109 21.5 43.2969 21.2188 42.8438C20.9531 42.3906 20.7578 41.9609 20.6328 41.5547C20.5078 41.1328 20.4219 40.7734 20.375 40.4766C20.3281 40.1641 20.25 39.9766 20.1406 39.9141C20.0156 39.8359 19.8906 39.7656 19.7656 39.7031C19.6562 39.6406 19.5391 39.5859 19.4141 39.5391C19.2891 39.4766 19.1641 39.4219 19.0391 39.375L25.8594 38.2734C25.4688 38.5859 25.1641 38.875 24.9453 39.1406C24.7422 39.4062 24.5859 39.6406 24.4766 39.8438C24.3516 40.0781 24.2656 40.2969 24.2188 40.5C24.1875 40.7188 24.2578 40.9922 24.4297 41.3203C24.6016 41.6484 24.8359 41.9688 25.1328 42.2812C25.4453 42.5781 25.8047 42.8281 26.2109 43.0312C26.6172 43.2344 27.0391 43.3203 27.4766 43.2891C28.0234 43.2422 28.4688 43.1094 28.8125 42.8906C29.1562 42.6562 29.4141 42.3672 29.5859 42.0234C29.7734 41.6797 29.8828 41.3047 29.9141 40.8984C29.9453 40.4922 29.9062 40.0938 29.7969 39.7031C29.7031 39.2969 29.5469 38.9219 29.3281 38.5781C29.1094 38.2188 28.8516 37.9219 28.5547 37.6875C28.2891 37.5 27.875 37.3203 27.3125 37.1484C26.7656 36.9766 26.1484 36.7891 25.4609 36.5859C24.7891 36.3828 24.0938 36.1484 23.375 35.8828C22.6719 35.6172 22.0312 35.2891 21.4531 34.8984C20.8906 34.5078 20.4375 34.0469 20.0938 33.5156C19.7656 32.9844 19.6406 32.3438 19.7188 31.5938C19.7812 30.9531 19.9844 30.4219 20.3281 30C20.6875 29.5625 21.1328 29.2188 21.6641 28.9688C22.2109 28.7031 22.8125 28.5078 23.4688 28.3828C24.1406 28.2578 24.8203 28.1875 25.5078 28.1719C26.2109 28.1406 26.8984 28.1484 27.5703 28.1953C28.2578 28.2422 28.875 28.2969 29.4219 28.3594C29.9688 28.4219 30.4297 28.4844 30.8047 28.5469C31.1953 28.5938 31.4375 28.625 31.5312 28.6406C31.9375 28.6719 32.3438 28.6641 32.75 28.6172C33.1094 28.5859 33.5 28.5156 33.9219 28.4062C34.3594 28.2812 34.7812 28.0938 35.1875 27.8438ZM36.6266 33.0234C36.9391 33.0703 37.2203 33.1094 37.4703 33.1406C37.7047 33.1562 37.9156 33.1719 38.1031 33.1875C38.3062 33.2031 38.5016 33.2109 38.6891 33.2109C38.8609 33.2109 39.0797 33.2031 39.3453 33.1875C39.5641 33.1719 39.8453 33.1562 40.1891 33.1406C40.5484 33.1094 40.9703 33.0703 41.4547 33.0234C41.4234 33.0859 41.3609 33.2812 41.2672 33.6094C41.1734 33.9219 41.0797 34.3125 40.9859 34.7812C40.8922 35.2344 40.8062 35.7422 40.7281 36.3047C40.6656 36.8516 40.6344 37.3984 40.6344 37.9453C40.65 38.4766 40.7203 38.9844 40.8453 39.4688C40.9703 39.9375 41.1734 40.3203 41.4547 40.6172C42.0484 41.2266 42.5719 41.5938 43.025 41.7188C43.4937 41.8438 43.9 41.8281 44.2437 41.6719C44.5875 41.5156 44.8687 41.2812 45.0875 40.9688C45.3062 40.6562 45.4625 40.3672 45.5562 40.1016C45.7906 39.3828 45.9312 38.625 45.9781 37.8281C46.0094 37.1406 45.9547 36.375 45.8141 35.5312C45.6734 34.6875 45.3375 33.8281 44.8062 32.9531C45.2125 32.9844 45.5641 33.0078 45.8609 33.0234C46.1578 33.0391 46.4156 33.0547 46.6344 33.0703C46.8844 33.0859 47.1031 33.1016 47.2906 33.1172C47.4625 33.1328 47.6656 33.1328 47.9 33.1172C48.1031 33.1172 48.3453 33.1094 48.6266 33.0938C48.9234 33.0625 49.2516 33.0312 49.6109 33C49.6734 34.5312 49.7281 35.8984 49.775 37.1016C49.8219 38.2891 49.8531 39.3438 49.8687 40.2656C49.9 41.1719 49.9156 41.9609 49.9156 42.6328C49.9156 43.2891 49.9156 43.8438 49.9156 44.2969C49.9 45.375 49.8531 46.0859 49.775 46.4297C49.65 46.9141 49.4234 47.3984 49.0953 47.8828C48.7828 48.3672 48.3844 48.7969 47.9 49.1719C47.4156 49.5625 46.8531 49.8594 46.2125 50.0625C45.5875 50.2812 44.9 50.3594 44.15 50.2969C43.4156 50.2344 42.8297 50.1328 42.3922 49.9922C41.9703 49.8672 41.6344 49.7188 41.3844 49.5469C41.15 49.375 40.9781 49.1953 40.8687 49.0078C40.775 48.8203 40.7047 48.625 40.6578 48.4219C40.6109 48.2344 40.5641 48.0547 40.5172 47.8828C40.4703 47.7109 40.3766 47.5625 40.2359 47.4375C40.0641 47.2969 39.8844 47.1562 39.6969 47.0156C39.525 46.8906 39.3375 46.7656 39.1344 46.6406C38.9469 46.5156 38.7594 46.4141 38.5719 46.3359L43.5641 46.0547C43.4234 46.2422 43.3219 46.4141 43.2594 46.5703C43.1969 46.7266 43.1578 46.8594 43.1422 46.9688C43.1266 47.1094 43.1344 47.2266 43.1656 47.3203C43.2281 47.5078 43.3375 47.7109 43.4937 47.9297C43.6656 48.1641 43.8844 48.3438 44.15 48.4688C44.4156 48.6094 44.7281 48.6562 45.0875 48.6094C45.4625 48.5625 45.8844 48.3672 46.3531 48.0234C46.7437 47.7266 47.0719 47.25 47.3375 46.5938C47.5562 46.0312 47.7281 45.2422 47.8531 44.2266C47.9781 43.2109 47.9547 41.875 47.7828 40.2188C47.5016 41.1875 47.1187 41.9297 46.6344 42.4453C46.15 42.9609 45.6656 43.3359 45.1812 43.5703C44.6187 43.8516 44.0328 44 43.4234 44.0156C42.6109 43.9844 41.9156 43.8828 41.3375 43.7109C40.7594 43.5234 40.2828 43.2734 39.9078 42.9609C39.5328 42.6484 39.2359 42.2812 39.0172 41.8594C38.8141 41.4219 38.6656 40.9375 38.5719 40.4062C38.4781 39.875 38.4312 39.3438 38.4312 38.8125C38.4312 38.2656 38.4312 37.7578 38.4312 37.2891C38.4469 36.8203 38.4547 36.3984 38.4547 36.0234C38.4547 35.6328 38.4156 35.3203 38.3375 35.0859C38.2437 34.8516 38.1187 34.6172 37.9625 34.3828C37.8375 34.1797 37.6656 33.9609 37.4469 33.7266C37.2125 33.4766 36.9391 33.2422 36.6266 33.0234ZM54.6125 42.4219C54.7219 41.9062 54.8 41.4531 54.8469 41.0625C54.9094 40.6562 54.9562 40.3203 54.9875 40.0547C55.0187 39.7422 55.0344 39.4766 55.0344 39.2578C55.0187 38.9922 55.0031 38.6797 54.9875 38.3203C54.9875 37.9453 54.9719 37.5781 54.9406 37.2188C54.925 36.8438 54.9016 36.5156 54.8703 36.2344C54.8391 35.9375 54.8 35.7266 54.7531 35.6016C54.6906 35.4766 54.6047 35.3438 54.4953 35.2031C54.2766 34.9375 53.9562 34.6797 53.5344 34.4297C53.8937 34.3516 54.1984 34.2891 54.4484 34.2422C54.7141 34.1797 54.9328 34.125 55.1047 34.0781C55.2922 34.0156 55.4562 33.9609 55.5969 33.9141C55.7219 33.8672 55.8703 33.8203 56.0422 33.7734C56.1828 33.7422 56.3547 33.7031 56.5578 33.6562C56.7609 33.6094 56.9953 33.5547 57.2609 33.4922L57.1906 35.625C57.6906 35.0312 58.1984 34.5859 58.7141 34.2891C59.2297 33.9922 59.7141 33.7812 60.1672 33.6562C60.6828 33.5 61.1906 33.4219 61.6906 33.4219C62.3156 33.4531 62.8937 33.5547 63.425 33.7266C63.9719 33.8984 64.4406 34.1016 64.8312 34.3359C65.2375 34.5547 65.5656 34.7891 65.8156 35.0391C66.0656 35.2891 66.2141 35.5078 66.2609 35.6953C66.4484 36.3047 66.4953 36.8672 66.4016 37.3828C66.3078 37.8828 66.1828 38.375 66.0266 38.8594C65.8859 39.3281 65.7609 39.7969 65.6516 40.2656C65.5578 40.7344 65.5969 41.2422 65.7687 41.7891C65.8312 41.9297 65.8937 42.0703 65.9562 42.2109C66.0187 42.3359 66.0969 42.4609 66.1906 42.5859C66.2844 42.7109 66.3937 42.8125 66.5187 42.8906C66.3469 42.875 66.175 42.8672 66.0031 42.8672C65.8312 42.8516 65.675 42.8359 65.5344 42.8203C65.3625 42.8047 65.2062 42.7891 65.0656 42.7734C64.9094 42.7578 64.6984 42.75 64.4328 42.75C63.9797 42.75 63.2766 42.7734 62.3234 42.8203C62.4641 42.4922 62.5734 42.2188 62.6516 42C62.7453 41.7656 62.8234 41.5781 62.8859 41.4375C62.9484 41.2656 62.9953 41.1328 63.0266 41.0391C63.2141 40.5859 63.3234 40.0703 63.3547 39.4922C63.4016 38.9141 63.3625 38.3281 63.2375 37.7344C63.1906 37.5312 63.1125 37.2891 63.0031 37.0078C62.8937 36.7266 62.7453 36.4531 62.5578 36.1875C62.3859 35.9219 62.175 35.6953 61.925 35.5078C61.6906 35.3203 61.4172 35.2109 61.1047 35.1797C60.7922 35.1484 60.4406 35.2266 60.05 35.4141C59.675 35.6016 59.2687 35.9453 58.8312 36.4453C58.5031 36.8672 58.2453 37.3828 58.0578 37.9922C57.8859 38.5078 57.7687 39.1562 57.7062 39.9375C57.6437 40.7031 57.7375 41.6016 57.9875 42.6328C57.7687 42.6016 57.5656 42.5859 57.3781 42.5859C57.1906 42.5703 57.0344 42.5547 56.9094 42.5391C56.7531 42.5234 56.6125 42.5078 56.4875 42.4922C56.3469 42.4922 56.1906 42.4844 56.0187 42.4688C55.8625 42.4688 55.6672 42.4688 55.4328 42.4688C55.1984 42.4531 54.925 42.4375 54.6125 42.4219ZM83.45 36.6797C83.2625 36.6484 83.0281 36.625 82.7469 36.6094C82.4813 36.5938 82.2234 36.5859 81.9734 36.5859C81.6922 36.5859 81.3953 36.5938 81.0828 36.6094C80.7547 36.625 80.4266 36.6406 80.0984 36.6562C79.8172 36.6719 79.4969 36.6953 79.1375 36.7266C78.7938 36.7422 78.4578 36.7656 78.1297 36.7969C78.2547 36.7344 78.3641 36.6484 78.4578 36.5391C78.5672 36.4297 78.6609 36.3203 78.7391 36.2109C78.8172 36.0859 78.8875 35.9531 78.95 35.8125C79.0281 35.5781 79.0203 35.2969 78.9266 34.9688C78.8328 34.625 78.6609 34.3125 78.4109 34.0312C78.1766 33.75 77.8719 33.5312 77.4969 33.375C77.1375 33.2031 76.7391 33.1641 76.3016 33.2578C75.8328 33.3672 75.4109 33.5312 75.0359 33.75C74.6766 33.9688 74.3719 34.2734 74.1219 34.6641C73.8875 35.0391 73.7156 35.5078 73.6063 36.0703C73.5125 36.6172 73.4891 37.2734 73.5359 38.0391C73.5984 38.9922 73.7547 39.75 74.0047 40.3125C74.2547 40.875 74.5594 41.2969 74.9188 41.5781C75.2781 41.8594 75.6688 42.0312 76.0906 42.0938C76.5281 42.1406 76.9578 42.1406 77.3797 42.0938C77.6766 42.0312 77.95 41.8984 78.2 41.6953C78.4031 41.5234 78.5906 41.2734 78.7625 40.9453C78.9344 40.6172 79.0125 40.1641 78.9969 39.5859L81.8563 39.4688C81.5281 40.3906 81.1297 41.125 80.6609 41.6719C80.1922 42.2031 79.7391 42.6172 79.3016 42.9141C78.7859 43.2578 78.2703 43.4922 77.7547 43.6172C77.1141 43.7266 76.5438 43.7734 76.0438 43.7578C75.5438 43.7266 75.0906 43.6484 74.6844 43.5234C74.2781 43.3984 73.9031 43.2422 73.5594 43.0547C73.2156 42.8672 72.8875 42.6641 72.575 42.4453C72.3719 42.3047 72.1453 42.0703 71.8953 41.7422C71.6453 41.4141 71.4109 41.0234 71.1922 40.5703C70.9734 40.1016 70.7938 39.5859 70.6531 39.0234C70.5125 38.4609 70.4578 37.8828 70.4891 37.2891C70.5203 36.6797 70.6609 36.0703 70.9109 35.4609C71.1609 34.8516 71.5594 34.2656 72.1063 33.7031C72.9344 32.8594 73.8172 32.3125 74.7547 32.0625C75.7078 31.7969 76.6063 31.7266 77.45 31.8516C78.2938 31.9609 79.0438 32.2031 79.7 32.5781C80.3563 32.9531 80.8172 33.3594 81.0828 33.7969C81.3484 34.2344 81.5438 34.5703 81.6688 34.8047C81.8094 35.0234 81.9109 35.1953 81.9734 35.3203C82.0516 35.4297 82.1141 35.5156 82.1609 35.5781C82.2234 35.625 82.3094 35.6953 82.4188 35.7891C82.4969 35.8672 82.5906 35.9531 82.7 36.0469C82.7938 36.125 82.9031 36.2188 83.0281 36.3281C83.1531 36.4375 83.2938 36.5547 83.45 36.6797Z" fill="black"/>
<path d="M91.6367 4.9873C93.3945 5.13379 94.8008 5.51465 95.8555 6.12988C96.9395 6.71582 97.7744 7.3457 98.3604 8.01953C99.0635 8.81055 99.5615 9.68945 99.8545 10.6562C100.147 11.9453 100.206 13.1318 100.03 14.2158C99.8545 15.2705 99.5908 16.2373 99.2393 17.1162C98.917 17.9951 98.5947 18.7861 98.2725 19.4893C97.9795 20.1924 97.8623 20.8516 97.9209 21.4668C97.9795 21.9062 98.1699 22.3457 98.4922 22.7852C98.7559 23.166 99.1514 23.5615 99.6787 23.9717C100.235 24.3818 100.982 24.7334 101.92 25.0264L101.744 29.2451C100.631 29.1572 99.752 29.2158 99.1074 29.4209C98.4922 29.626 98.0234 29.875 97.7012 30.168C97.3496 30.4902 97.1299 30.8857 97.042 31.3545C96.9834 31.9697 97.1738 32.6875 97.6133 33.5078C98.082 34.3281 98.5801 35.207 99.1074 36.1445C99.6641 37.082 100.147 38.0635 100.558 39.0889C100.968 40.1143 101.1 41.1543 100.953 42.209C100.777 43.0586 100.323 43.8643 99.5908 44.626C98.9756 45.2998 98.0527 46.0029 96.8223 46.7354C95.5918 47.4678 93.9072 48.127 91.7686 48.7129L91.2412 43.2197C92.6182 43.3662 93.6729 43.3369 94.4053 43.1318C95.167 42.9561 95.7236 42.7363 96.0752 42.4727C96.4854 42.1504 96.7344 41.7695 96.8223 41.3301C96.8516 40.7148 96.6904 40.085 96.3389 39.4404C96.0166 38.7959 95.6504 38.0928 95.2402 37.3311C94.8594 36.5693 94.5225 35.749 94.2295 34.8701C93.9365 33.9619 93.8486 32.9512 93.9658 31.8379C94.0537 31.0176 94.2588 30.2266 94.5811 29.4648C94.8447 28.8203 95.2256 28.1904 95.7236 27.5752C96.251 26.9307 96.9541 26.4473 97.833 26.125C96.7197 26.2129 95.8701 26.0811 95.2842 25.7295C94.6982 25.3486 94.2734 24.9092 94.0098 24.4111C93.6875 23.8545 93.5264 23.1953 93.5264 22.4336C93.5557 21.4375 93.7168 20.5586 94.0098 19.7969C94.3027 19.0352 94.625 18.3174 94.9766 17.6436C95.3281 16.9404 95.6357 16.252 95.8994 15.5781C96.1924 14.9043 96.3389 14.1719 96.3389 13.3809C96.2803 12.7949 96.0752 12.2529 95.7236 11.7549C95.4014 11.3447 94.918 10.9492 94.2734 10.5684C93.6582 10.1875 92.75 9.95312 91.5488 9.86523L91.6367 4.9873Z" fill="black"/>
<path d="M13.3633 49.0127C11.6055 48.8662 10.1992 48.4854 9.14453 47.8701C8.06055 47.2842 7.22559 46.6543 6.63965 45.9805C5.93652 45.1895 5.43848 44.3105 5.14551 43.3438C4.85254 42.0547 4.79395 40.8682 4.96973 39.7842C5.14551 38.7295 5.40918 37.7627 5.76074 36.8838C6.08301 36.0049 6.40527 35.2139 6.72754 34.5107C7.02051 33.8076 7.1377 33.1484 7.0791 32.5332C7.02051 32.0938 6.83008 31.6543 6.50781 31.2148C6.24414 30.834 5.84863 30.4385 5.32129 30.0283C4.76465 29.6182 4.01758 29.2666 3.08008 28.9736L3.25586 24.7549C4.36914 24.8428 5.24805 24.7842 5.89258 24.5791C6.50781 24.374 6.97656 24.125 7.29883 23.832C7.65039 23.5098 7.87012 23.1143 7.95801 22.6455C8.0166 22.0303 7.82617 21.3125 7.38672 20.4922C6.91797 19.6719 6.41992 18.793 5.89258 17.8555C5.33594 16.918 4.85254 15.9365 4.44238 14.9111C4.03223 13.8857 3.90039 12.8457 4.04688 11.791C4.22266 10.9414 4.67676 10.1357 5.40918 9.37402C6.02441 8.7002 6.94727 7.99707 8.17773 7.26465C9.4082 6.53223 11.0928 5.87305 13.2314 5.28711L13.7588 10.7803C12.3818 10.6338 11.3271 10.6631 10.5947 10.8682C9.83301 11.0439 9.27637 11.2637 8.9248 11.5273C8.51465 11.8496 8.26562 12.2305 8.17773 12.6699C8.14844 13.2852 8.30957 13.915 8.66113 14.5596C8.9834 15.2041 9.34961 15.9072 9.75977 16.6689C10.1406 17.4307 10.4775 18.251 10.7705 19.1299C11.0635 20.0381 11.1514 21.0488 11.0342 22.1621C10.9463 22.9824 10.7412 23.7734 10.4189 24.5352C10.1553 25.1797 9.77441 25.8096 9.27637 26.4248C8.74902 27.0693 8.0459 27.5527 7.16699 27.875C8.28027 27.7871 9.12988 27.9189 9.71582 28.2705C10.3018 28.6514 10.7266 29.0908 10.9902 29.5889C11.3125 30.1455 11.4736 30.8047 11.4736 31.5664C11.4443 32.5625 11.2832 33.4414 10.9902 34.2031C10.6973 34.9648 10.375 35.6826 10.0234 36.3564C9.67188 37.0596 9.36426 37.748 9.10059 38.4219C8.80762 39.0957 8.66113 39.8281 8.66113 40.6191C8.71973 41.2051 8.9248 41.7471 9.27637 42.2451C9.59863 42.6553 10.082 43.0508 10.7266 43.4316C11.3418 43.8125 12.25 44.0469 13.4512 44.1348L13.3633 49.0127Z" fill="black"/>
</svg>
